<?xml version="1.0" standalone="no"?>
<!DOCTYPE svg PUBLIC "-//W3C//DTD SVG 20010904//EN"
 "http://www.w3.org/TR/2001/REC-SVG-20010904/DTD/svg10.dtd">
<svg version="1.0" xmlns="http://www.w3.org/2000/svg"
 width="1920.000000pt" height="1080.000000pt" viewBox="0 0 1920.000000 1080.000000"
 preserveAspectRatio="xMidYMid meet">

<g transform="translate(0.000000,1080.000000) scale(0.100000,-0.100000)"
fill="#000000" stroke="none">
<path d="M1826 8319 c-183 -13 -385 -64 -536 -136 -82 -39 -125 -68 -182 -122
-39 -36 -44 -49 -29 -79 5 -9 21 -48 37 -87 15 -38 31 -74 36 -79 4 -6 8 -20
8 -32 0 -13 4 -25 9 -29 5 -3 12 -18 16 -34 9 -44 30 -57 68 -44 18 6 59 18
92 28 33 9 74 21 91 26 17 5 70 9 118 9 90 0 161 -17 226 -53 19 -11 56 -32
81 -46 161 -90 252 -199 340 -406 10 -25 52 -156 69 -215 7 -25 16 -56 21 -70
10 -29 47 -168 59 -220 4 -19 15 -60 25 -90 19 -64 32 -113 40 -155 4 -16 10
-39 15 -50 5 -11 11 -33 13 -50 3 -16 13 -55 22 -85 20 -68 35 -125 42 -168 3
-18 9 -35 14 -38 5 -3 9 -17 9 -31 0 -14 7 -48 16 -77 29 -93 34 -112 34 -139
0 -14 4 -28 9 -31 5 -3 11 -23 14 -43 2 -21 17 -83 32 -138 15 -55 30 -118 35
-140 5 -22 25 -103 45 -180 20 -77 41 -158 46 -180 5 -22 16 -67 24 -100 9
-33 20 -78 25 -100 16 -71 28 -119 45 -180 10 -33 22 -78 27 -100 5 -22 13
-57 18 -77 6 -21 14 -55 19 -75 5 -21 17 -63 26 -93 9 -30 19 -64 22 -75 2
-11 8 -29 12 -40 5 -11 14 -38 20 -60 19 -62 61 -178 72 -197 5 -10 9 -22 9
-28 0 -24 85 -143 132 -185 53 -47 156 -102 223 -118 64 -16 244 -20 295 -7
166 43 280 117 374 242 54 73 63 88 152 253 63 118 215 428 257 525 8 19 26
60 40 90 14 30 35 78 47 105 12 28 35 77 51 110 16 33 29 63 29 67 0 3 16 41
35 82 19 42 35 78 35 81 0 2 12 30 26 62 14 32 30 67 34 78 4 11 18 42 29 68
12 27 35 82 51 122 32 79 66 160 81 187 5 10 9 27 9 38 0 10 9 24 20 30 18 10
21 7 26 -20 4 -17 11 -33 15 -36 5 -3 9 -14 9 -25 0 -10 4 -27 10 -37 5 -9 16
-37 24 -62 27 -81 42 -120 49 -126 4 -4 7 -18 7 -30 0 -13 4 -25 9 -28 5 -3
11 -16 14 -28 3 -13 28 -88 57 -168 29 -80 54 -155 57 -168 3 -12 9 -25 14
-28 5 -3 9 -14 9 -25 0 -10 4 -27 9 -37 5 -9 21 -48 36 -87 15 -38 31 -78 36
-87 5 -10 9 -25 9 -33 0 -8 4 -23 10 -33 5 -9 16 -35 26 -57 17 -43 19 -47 57
-145 190 -490 211 -538 285 -645 164 -236 441 -322 702 -217 232 93 361 262
507 662 19 52 37 104 40 115 2 11 8 29 12 40 18 46 31 93 31 113 0 11 5 24 10
27 6 3 10 16 10 28 0 12 7 35 15 51 8 15 15 37 15 47 0 11 4 27 9 37 5 9 14
37 21 62 7 25 17 56 22 70 6 14 15 41 20 60 5 19 14 51 19 70 6 19 14 51 19
70 4 19 22 82 39 140 17 58 36 121 41 140 20 74 62 216 71 238 5 13 9 32 9 43
0 10 4 27 9 37 6 9 17 44 26 77 9 33 21 70 26 83 5 13 9 32 9 43 0 10 4 27 9
37 9 17 29 83 51 162 7 25 16 55 21 68 5 13 9 32 9 43 0 10 4 27 9 37 6 9 17
44 26 77 10 33 21 71 25 85 4 14 13 45 20 70 7 25 18 63 25 85 7 22 18 60 25
85 7 25 16 56 20 70 14 44 39 133 54 190 8 30 30 105 49 165 20 61 43 135 52
165 10 30 21 64 25 75 4 11 15 40 25 65 9 25 21 53 26 62 5 10 9 25 9 33 0 8
4 23 9 33 11 20 58 127 85 192 3 8 14 29 25 45 10 17 28 47 40 68 36 64 96
141 165 212 36 37 66 72 66 79 0 28 -117 76 -231 95 -357 60 -708 -93 -904
-394 -59 -91 -165 -306 -165 -335 0 -5 -6 -24 -14 -42 -8 -18 -20 -53 -26 -78
-7 -25 -16 -54 -20 -65 -5 -11 -11 -31 -14 -45 -9 -44 -74 -283 -95 -350 -11
-36 -21 -75 -21 -87 0 -12 -4 -25 -10 -28 -5 -3 -10 -16 -10 -27 0 -12 -5 -38
-11 -57 -28 -87 -37 -119 -48 -158 -27 -105 -35 -132 -57 -203 -12 -41 -28
-95 -35 -120 -21 -79 -31 -114 -44 -150 -25 -71 -35 -107 -35 -128 0 -11 -4
-23 -9 -26 -5 -3 -11 -20 -14 -38 -3 -18 -12 -58 -22 -88 -9 -30 -25 -86 -35
-125 -17 -64 -64 -233 -91 -330 -7 -22 -22 -71 -34 -110 -12 -38 -28 -90 -35
-115 -7 -25 -17 -58 -21 -75 -5 -16 -20 -64 -33 -105 -14 -41 -26 -88 -28
-105 -5 -49 -32 -43 -52 12 -10 26 -22 59 -28 73 -6 14 -14 34 -18 45 -8 20
-35 91 -51 133 -5 12 -13 32 -18 45 -5 12 -19 49 -31 82 -12 33 -27 74 -34 90
-8 17 -26 62 -41 100 -15 39 -31 80 -36 93 -11 28 -22 55 -44 112 -10 25 -21
54 -25 65 -5 11 -18 47 -30 80 -13 33 -28 74 -35 90 -7 17 -18 46 -25 65 -7
19 -16 44 -20 55 -31 79 -60 155 -70 185 -7 19 -16 44 -20 55 -4 11 -15 40
-25 65 -59 152 -74 189 -124 290 -122 248 -209 356 -342 424 -66 33 -79 36
-155 36 -70 0 -93 -4 -141 -27 -87 -41 -218 -173 -287 -287 -10 -17 -21 -33
-25 -36 -18 -15 -184 -352 -228 -465 -9 -22 -20 -44 -25 -49 -4 -6 -8 -16 -8
-23 0 -7 -12 -38 -26 -70 -15 -32 -33 -74 -41 -93 -8 -19 -24 -55 -35 -80 -11
-25 -23 -54 -28 -65 -14 -35 -42 -98 -70 -160 -15 -33 -34 -76 -43 -95 -8 -19
-29 -65 -46 -103 -17 -37 -31 -69 -31 -71 0 -2 -23 -53 -50 -112 -28 -60 -59
-127 -69 -149 -61 -131 -184 -375 -190 -375 -3 0 -12 28 -19 63 -8 34 -18 81
-23 105 -20 91 -28 129 -38 182 -6 30 -18 87 -27 125 -9 39 -19 86 -24 105 -4
19 -13 60 -20 90 -14 65 -22 100 -45 195 -40 169 -50 210 -70 275 -24 81 -35
121 -45 160 -4 19 -16 62 -25 95 -39 137 -54 197 -62 243 -3 18 -9 35 -14 38
-5 3 -9 15 -9 26 0 12 -7 46 -16 77 -9 31 -20 72 -24 91 -9 40 -21 86 -45 180
-9 36 -20 81 -25 100 -13 54 -27 109 -45 175 -16 59 -25 96 -45 175 -42 167
-56 211 -109 325 -89 191 -259 396 -420 504 -123 84 -291 146 -436 161 -38 5
-88 10 -110 13 -22 3 -98 1 -169 -4z"/>
<path d="M9245 7104 c-154 -9 -410 -89 -585 -182 -244 -130 -447 -352 -542
-592 -46 -116 -86 -285 -75 -314 6 -15 43 -16 369 -14 l363 3 3 30 c2 17 8 34
13 40 5 5 9 17 9 27 0 10 4 26 9 36 5 9 17 34 27 55 33 68 148 167 254 219 52
25 113 51 135 56 22 6 58 15 80 20 124 32 189 36 315 19 198 -24 256 -47 349
-133 49 -46 70 -78 123 -186 11 -25 10 -156 -2 -163 -5 -3 -10 -13 -10 -21 0
-30 -56 -97 -114 -139 -155 -109 -270 -142 -661 -185 -216 -24 -322 -40 -391
-61 -17 -5 -42 -9 -57 -9 -14 0 -29 -4 -32 -10 -3 -5 -16 -10 -28 -10 -22 0
-91 -22 -125 -39 -9 -5 -30 -14 -47 -21 -16 -7 -38 -16 -47 -21 -10 -5 -22 -9
-28 -9 -6 0 -28 -11 -50 -25 -22 -14 -45 -25 -51 -25 -24 0 -237 -151 -284
-202 -61 -66 -95 -106 -95 -113 0 -3 -11 -22 -23 -43 -13 -20 -33 -64 -44 -97
-58 -170 -57 -160 -56 -366 0 -117 4 -208 11 -225 6 -16 18 -56 27 -89 16 -56
81 -204 95 -215 3 -3 16 -21 27 -40 23 -37 125 -138 183 -181 67 -49 218 -120
325 -152 167 -51 241 -59 485 -54 262 6 318 14 495 72 71 23 241 100 255 115
3 3 34 24 70 47 36 24 96 72 133 108 39 37 69 59 72 52 6 -20 25 -229 25 -279
l0 -48 354 0 c300 0 355 2 366 15 9 11 11 117 6 472 -4 252 -11 744 -15 1093
-8 611 -19 849 -41 889 -5 11 -10 38 -10 60 0 22 -4 43 -10 46 -5 3 -10 21
-10 40 0 19 -4 37 -10 40 -5 3 -10 15 -10 25 0 36 -91 196 -150 264 -164 191
-380 310 -690 380 -36 8 -86 19 -113 25 -47 11 -461 22 -572 15z m882 -1933
c-3 -91 -10 -184 -17 -206 -6 -22 -16 -58 -22 -80 -62 -240 -224 -440 -438
-541 -47 -22 -71 -31 -95 -38 -11 -3 -51 -14 -90 -25 -55 -16 -100 -20 -205
-21 -139 0 -171 6 -270 51 -49 22 -157 127 -177 172 -37 81 -44 107 -50 205
-8 127 48 255 140 319 75 52 205 103 264 103 17 0 34 4 37 9 3 5 23 11 43 14
21 3 74 13 118 22 133 28 199 39 360 60 70 10 207 58 300 106 75 38 91 43 99
31 5 -8 6 -89 3 -181z"/>
<path d="M11152 7010 c-124 -11 -125 -13 -77 -157 35 -106 70 -201 94 -258 5
-11 14 -36 21 -55 7 -19 16 -44 20 -55 5 -11 16 -38 25 -60 10 -22 21 -49 25
-60 4 -11 18 -42 30 -70 31 -71 51 -117 60 -140 4 -11 25 -63 45 -115 21 -52
43 -108 50 -125 8 -16 23 -57 35 -90 12 -33 25 -69 30 -80 5 -11 16 -42 26
-70 9 -27 21 -54 26 -60 4 -5 8 -19 8 -31 0 -13 5 -26 10 -29 6 -3 10 -15 10
-26 0 -10 4 -27 9 -37 5 -9 17 -37 26 -62 9 -25 21 -53 26 -62 5 -10 9 -27 9
-37 0 -11 5 -23 10 -26 6 -3 10 -16 10 -29 0 -12 4 -26 9 -32 5 -5 25 -58 45
-119 20 -60 40 -117 45 -125 4 -8 16 -42 25 -75 10 -33 22 -69 27 -80 4 -11
32 -90 60 -175 115 -343 141 -415 150 -424 5 -6 9 -20 9 -32 0 -13 5 -26 10
-29 6 -3 10 -14 10 -24 0 -9 11 -41 25 -69 14 -29 25 -56 25 -62 0 -6 4 -18 9
-28 6 -9 31 -62 57 -117 26 -55 51 -102 54 -105 4 -3 9 -13 13 -22 6 -17 35
-18 414 -18 l408 0 14 23 c25 38 76 140 94 184 9 23 26 64 38 90 11 26 25 57
29 68 4 11 17 41 29 67 12 26 21 51 21 54 0 3 7 22 16 42 20 46 29 68 44 112
7 19 20 51 28 70 8 19 18 45 23 58 5 12 13 32 18 45 8 18 36 91 71 182 11 27
80 205 90 230 31 78 64 164 95 250 20 55 40 109 45 120 4 11 13 36 20 55 7 19
19 49 26 67 8 17 14 37 14 45 0 8 4 18 8 23 4 6 14 28 21 50 7 22 16 49 20 60
5 11 14 34 21 50 7 17 25 68 40 115 16 47 52 150 80 230 28 80 58 168 67 195
8 28 19 59 23 70 29 70 60 163 60 177 0 9 5 20 10 23 6 3 10 16 10 29 0 12 4
26 9 31 4 6 16 35 27 65 10 30 22 59 26 65 4 5 8 19 8 32 0 13 4 31 10 41 24
43 61 175 58 209 -3 33 -6 38 -33 42 -16 2 -170 4 -342 5 -300 1 -313 0 -331
-19 -16 -17 -38 -64 -82 -180 -4 -11 -19 -49 -33 -85 -14 -36 -30 -81 -37
-100 -7 -19 -16 -44 -20 -55 -4 -11 -15 -38 -23 -60 -9 -22 -21 -58 -28 -80
-7 -22 -17 -44 -21 -50 -4 -5 -8 -19 -8 -30 0 -12 -3 -25 -7 -29 -7 -6 -20
-42 -49 -126 -8 -25 -19 -54 -23 -65 -5 -11 -16 -40 -26 -65 -10 -25 -21 -54
-25 -65 -4 -11 -13 -33 -18 -50 -20 -59 -64 -180 -72 -200 -5 -11 -21 -54 -35
-95 -15 -41 -31 -84 -35 -95 -4 -11 -13 -36 -20 -55 -16 -46 -39 -101 -50
-122 -6 -10 -10 -25 -10 -33 0 -8 -4 -23 -9 -33 -5 -9 -13 -28 -19 -42 -5 -14
-15 -38 -22 -55 -6 -16 -18 -50 -26 -75 -8 -25 -19 -54 -24 -65 -5 -11 -25
-65 -45 -120 -38 -102 -44 -118 -65 -170 -23 -57 -60 -174 -60 -189 0 -8 -9
-20 -20 -26 -17 -9 -20 -7 -25 17 -9 43 -26 106 -35 128 -26 64 -60 162 -60
173 0 7 -4 20 -9 30 -5 9 -14 35 -21 57 -7 22 -18 54 -25 70 -7 17 -18 50 -25
75 -7 25 -16 54 -20 65 -4 11 -25 74 -46 140 -20 66 -52 165 -69 220 -18 55
-44 141 -60 190 -15 50 -31 99 -35 110 -4 11 -15 43 -23 70 -23 72 -38 118
-48 137 -5 10 -9 25 -9 33 0 8 -4 23 -9 33 -9 17 -29 78 -77 227 -15 44 -30
89 -35 100 -5 11 -18 47 -28 80 -11 33 -37 112 -59 175 -21 63 -51 153 -66
200 -16 47 -33 91 -38 98 -8 9 -81 12 -312 11 -165 -1 -339 -5 -384 -9z"/>
<path d="M14707 7011 c-56 -6 -83 -23 -69 -45 3 -6 9 -28 13 -51 7 -40 24 -95
40 -127 5 -10 9 -25 9 -33 0 -8 4 -23 9 -33 6 -9 22 -51 36 -92 15 -41 30 -84
35 -95 4 -11 25 -65 45 -120 20 -55 40 -109 45 -120 4 -11 14 -36 20 -55 17
-46 39 -101 51 -122 5 -10 9 -24 9 -31 0 -7 11 -37 25 -65 14 -29 25 -56 25
-62 0 -6 4 -18 9 -28 5 -9 14 -30 21 -47 7 -16 18 -43 25 -60 7 -16 17 -41 23
-55 5 -14 22 -52 37 -85 48 -107 93 -208 120 -270 7 -16 23 -52 35 -80 23 -53
40 -91 66 -152 9 -21 24 -56 34 -78 9 -22 23 -56 30 -75 7 -19 17 -39 22 -44
4 -6 8 -18 8 -27 0 -15 23 -68 61 -141 5 -10 9 -22 9 -28 0 -5 11 -33 24 -62
13 -29 29 -69 36 -88 15 -43 23 -64 44 -112 9 -20 16 -39 16 -42 0 -3 8 -25
19 -49 10 -23 31 -73 46 -112 36 -93 46 -117 56 -137 5 -10 9 -22 9 -27 0 -5
16 -45 35 -88 20 -43 40 -87 44 -98 13 -31 61 -135 85 -185 l21 -45 -81 -160
c-45 -88 -91 -178 -104 -200 -135 -241 -428 -479 -695 -566 -61 -20 -92 -23
-240 -23 -233 -1 -327 21 -564 130 -40 19 -78 33 -84 31 -5 -1 -21 -23 -36
-47 -14 -25 -35 -60 -46 -79 -11 -18 -57 -89 -102 -158 -46 -69 -83 -128 -83
-130 0 -2 -9 -14 -20 -26 -43 -45 -38 -64 31 -132 58 -56 111 -90 194 -125 17
-7 38 -16 47 -21 10 -5 27 -9 39 -9 11 0 30 -5 41 -11 33 -18 126 -29 343 -41
302 -18 454 -13 600 17 44 9 197 56 217 66 10 5 22 9 28 9 6 0 33 11 62 25 28
14 55 25 59 25 6 0 30 13 168 92 148 85 360 266 466 399 66 81 175 237 175
248 0 5 6 14 14 20 8 7 23 29 34 49 11 20 28 53 39 72 10 19 29 60 42 90 13
30 29 69 36 85 7 17 29 75 50 130 20 55 40 109 45 120 4 11 20 52 35 90 15 39
31 79 35 90 4 11 14 36 20 55 7 19 23 58 36 87 13 28 24 57 24 63 0 5 4 18 9
28 5 9 21 49 36 87 15 39 31 80 36 93 11 28 22 55 44 112 21 56 32 83 44 113
5 12 15 38 21 57 7 19 19 49 26 65 6 17 33 86 59 155 26 69 51 135 56 148 10
25 19 47 44 112 10 25 21 54 25 65 4 11 13 36 20 55 16 46 39 101 50 122 6 10
10 25 10 33 0 8 4 23 9 33 10 18 51 125 71 182 7 19 16 44 20 55 24 59 60 162
60 173 0 7 4 20 9 30 6 9 22 51 36 92 14 41 30 83 36 92 5 10 9 26 9 36 0 10
4 22 8 27 4 6 16 35 26 65 10 30 21 64 26 75 4 11 13 36 20 55 11 31 18 49 50
125 4 11 13 36 20 55 13 38 21 59 40 105 6 17 18 50 26 75 8 25 19 54 24 65 4
11 25 65 45 120 20 55 40 109 45 120 48 108 52 148 18 167 -32 17 -486 24
-615 9 -88 -10 -100 -14 -120 -39 -13 -15 -23 -35 -23 -45 0 -9 -4 -25 -9 -35
-21 -42 -41 -94 -41 -107 0 -9 -4 -23 -9 -33 -5 -9 -13 -33 -18 -52 -17 -58
-65 -214 -73 -235 -4 -11 -24 -74 -45 -140 -20 -66 -41 -129 -45 -140 -5 -11
-20 -58 -35 -105 -15 -47 -31 -94 -36 -105 -4 -11 -15 -40 -23 -65 -9 -25 -33
-94 -55 -155 -116 -326 -153 -432 -158 -450 -2 -11 -9 -29 -13 -40 -5 -11 -21
-56 -35 -100 -14 -44 -30 -88 -35 -97 -6 -10 -10 -27 -10 -37 0 -11 -4 -23
-10 -26 -5 -3 -10 -14 -10 -23 0 -9 -7 -30 -15 -46 -8 -15 -15 -37 -15 -47 0
-10 -4 -21 -10 -24 -5 -3 -10 -15 -10 -26 0 -10 -4 -27 -9 -37 -17 -31 -61
-157 -61 -175 0 -59 -55 48 -67 131 -3 18 -9 35 -14 38 -5 3 -9 15 -9 27 -1
23 -53 183 -64 194 -3 3 -6 17 -6 29 0 13 -4 26 -10 29 -5 3 -10 15 -10 26 0
10 -4 27 -9 37 -5 9 -16 35 -24 57 -50 131 -69 180 -88 223 -12 26 -25 56 -29
67 -4 11 -20 52 -35 90 -15 39 -36 89 -46 112 -11 24 -19 47 -19 53 0 6 -4 18
-10 28 -5 9 -16 35 -26 57 -9 22 -20 49 -24 60 -5 11 -14 38 -21 60 -7 22 -17
45 -21 51 -4 6 -21 51 -37 100 -45 135 -136 393 -151 429 -5 11 -16 41 -24 67
-9 26 -24 66 -35 90 -11 24 -25 61 -32 83 -6 22 -16 49 -20 60 -5 11 -22 56
-37 100 l-29 80 -54 7 c-68 8 -564 7 -642 -1z"/>
</g>
</svg>
